{
    "asset" : {
        "generator" : "Khronos glTF Blender I/O v1.3.48",
        "version" : "2.0"
    },
    "scene" : 0,
    "scenes" : [
        {
            "name" : "Scene",
            "nodes" : [
                0
            ]
        }
    ],
    "nodes" : [
        {
            "mesh" : 0,
            "name" : "Mball.004",
            "rotation" : [
                0,
                0,
                0.7071067690849304,
                0.7071068286895752
            ],
            "scale" : [
                0.75,
                0.75,
                -0.75
            ],
            "translation" : [
                0.016458958387374878,
                0.3125,
                0
            ]
        }
    ],
    "materials" : [
        {
            "doubleSided" : true,
            "emissiveFactor" : [
                0,
                0,
                0
            ],
            "name" : "MaterialPlayer.001",
            "pbrMetallicRoughness" : {
                "baseColorTexture" : {
                    "index" : 0,
                    "texCoord" : 0
                },
                "metallicFactor" : 0,
                "roughnessFactor" : 0.5
            }
        }
    ],
    "meshes" : [
        {
            "name" : "Mesh",
            "primitives" : [
                {
                    "attributes" : {
                        "POSITION" : 0,
                        "NORMAL" : 1,
                        "TEXCOORD_0" : 2
                    },
                    "indices" : 3,
                    "material" : 0
                }
            ]
        }
    ],
    "textures" : [
        {
            "source" : 0
        }
    ],
    "images" : [
        {
            "bufferView" : 4,
            "mimeType" : "image/png",
            "name" : "Material"
        }
    ],
    "accessors" : [
        {
            "bufferView" : 0,
            "componentType" : 5126,
            "count" : 689,
            "max" : [
                3.931528091430664,
                1.6781686544418335,
                1.6044304370880127
            ],
            "min" : [
                -3.3623077869415283,
                -1.6781686544418335,
                -1.6044304370880127
            ],
            "type" : "VEC3"
        },
        {
            "bufferView" : 1,
            "componentType" : 5126,
            "count" : 689,
            "type" : "VEC3"
        },
        {
            "bufferView" : 2,
            "componentType" : 5126,
            "count" : 689,
            "type" : "VEC2"
        },
        {
            "bufferView" : 3,
            "componentType" : 5123,
            "count" : 3084,
            "type" : "SCALAR"
        }
    ],
    "bufferViews" : [
        {
            "buffer" : 0,
            "byteLength" : 8268,
            "byteOffset" : 0
        },
        {
            "buffer" : 0,
            "byteLength" : 8268,
            "byteOffset" : 8268
        },
        {
            "buffer" : 0,
            "byteLength" : 5512,
            "byteOffset" : 16536
        },
        {
            "buffer" : 0,
            "byteLength" : 6168,
            "byteOffset" : 22048
        },
        {
            "buffer" : 0,
            "byteLength" : 343223,
            "byteOffset" : 28216
        }
    ],
    "buffers" : [
        {
            "byteLength" : 371440,
            "uri" : "data:application/octet-stream;base64,"
        }
    ]
}
