{
    "asset" : {
        "generator" : "Khronos glTF Blender I/O v1.3.48",
        "version" : "2.0"
    },
    "scene" : 0,
    "scenes" : [
        {
            "name" : "Scene",
            "nodes" : [
                3
            ]
        }
    ],
    "nodes" : [
        {
            "name" : "Head",
            "translation" : [
                0,
                1.5,
                0
            ]
        },
        {
            "children" : [
                0
            ],
            "name" : "Body",
            "translation" : [
                0,
                -1.5,
                0
            ]
        },
        {
            "mesh" : 0,
            "name" : "Pulser",
            "skin" : 0
        },
        {
            "children" : [
                2,
                1
            ],
            "name" : "Armature",
            "translation" : [
                0,
                0.33235448598861694,
                0
            ]
        }
    ],
    "animations" : [
        {
            "channels" : [
                {
                    "sampler" : 0,
                    "target" : {
                        "node" : 1,
                        "path" : "translation"
                    }
                },
                {
                    "sampler" : 1,
                    "target" : {
                        "node" : 1,
                        "path" : "rotation"
                    }
                },
                {
                    "sampler" : 2,
                    "target" : {
                        "node" : 1,
                        "path" : "scale"
                    }
                },
                {
                    "sampler" : 3,
                    "target" : {
                        "node" : 0,
                        "path" : "translation"
                    }
                },
                {
                    "sampler" : 4,
                    "target" : {
                        "node" : 0,
                        "path" : "rotation"
                    }
                },
                {
                    "sampler" : 5,
                    "target" : {
                        "node" : 0,
                        "path" : "scale"
                    }
                }
            ],
            "name" : "Shoot",
            "samplers" : [
                {
                    "input" : 8,
                    "interpolation" : "LINEAR",
                    "output" : 9
                },
                {
                    "input" : 8,
                    "interpolation" : "LINEAR",
                    "output" : 10
                },
                {
                    "input" : 8,
                    "interpolation" : "LINEAR",
                    "output" : 11
                },
                {
                    "input" : 8,
                    "interpolation" : "LINEAR",
                    "output" : 12
                },
                {
                    "input" : 8,
                    "interpolation" : "LINEAR",
                    "output" : 13
                },
                {
                    "input" : 8,
                    "interpolation" : "LINEAR",
                    "output" : 14
                }
            ]
        }
    ],
    "materials" : [
        {
            "doubleSided" : true,
            "emissiveFactor" : [
                0,
                0,
                0
            ],
            "name" : "PulserMaterial.001",
            "pbrMetallicRoughness" : {
                "baseColorTexture" : {
                    "index" : 0,
                    "texCoord" : 0
                },
                "metallicFactor" : 0,
                "roughnessFactor" : 0.5
            }
        }
    ],
    "meshes" : [
        {
            "name" : "Torus",
            "primitives" : [
                {
                    "attributes" : {
                        "POSITION" : 0,
                        "NORMAL" : 1,
                        "TEXCOORD_0" : 2,
                        "COLOR_0" : 3,
                        "JOINTS_0" : 4,
                        "WEIGHTS_0" : 5
                    },
                    "indices" : 6,
                    "material" : 0
                }
            ]
        }
    ],
    "textures" : [
        {
            "source" : 0
        }
    ],
    "images" : [
        {
            "bufferView" : 7,
            "mimeType" : "image/png",
            "name" : "PulserMaterial"
        }
    ],
    "skins" : [
        {
            "inverseBindMatrices" : 7,
            "joints" : [
                1,
                0
            ],
            "name" : "Armature"
        }
    ],
    "accessors" : [
        {
            "bufferView" : 0,
            "componentType" : 5126,
            "count" : 3489,
            "max" : [
                1.7952420711517334,
                1.743161678314209,
                1.7952420711517334
            ],
            "min" : [
                -1.7952420711517334,
                -1.33479642868042,
                -1.7952420711517334
            ],
            "type" : "VEC3"
        },
        {
            "bufferView" : 1,
            "componentType" : 5126,
            "count" : 3489,
            "type" : "VEC3"
        },
        {
            "bufferView" : 2,
            "componentType" : 5126,
            "count" : 3489,
            "type" : "VEC2"
        },
        {
            "bufferView" : 3,
            "componentType" : 5126,
            "count" : 3489,
            "type" : "VEC4"
        },
        {
            "bufferView" : 4,
            "componentType" : 5123,
            "count" : 3489,
            "type" : "VEC4"
        },
        {
            "bufferView" : 5,
            "componentType" : 5126,
            "count" : 3489,
            "type" : "VEC4"
        },
        {
            "bufferView" : 6,
            "componentType" : 5123,
            "count" : 6429,
            "type" : "SCALAR"
        },
        {
            "bufferView" : 8,
            "componentType" : 5126,
            "count" : 2,
            "type" : "MAT4"
        },
        {
            "bufferView" : 9,
            "componentType" : 5126,
            "count" : 25,
            "max" : [
                1
            ],
            "min" : [
                0
            ],
            "type" : "SCALAR"
        },
        {
            "bufferView" : 10,
            "componentType" : 5126,
            "count" : 25,
            "type" : "VEC3"
        },
        {
            "bufferView" : 11,
            "componentType" : 5126,
            "count" : 25,
            "type" : "VEC4"
        },
        {
            "bufferView" : 12,
            "componentType" : 5126,
            "count" : 25,
            "type" : "VEC3"
        },
        {
            "bufferView" : 13,
            "componentType" : 5126,
            "count" : 25,
            "type" : "VEC3"
        },
        {
            "bufferView" : 14,
            "componentType" : 5126,
            "count" : 25,
            "type" : "VEC4"
        },
        {
            "bufferView" : 15,
            "componentType" : 5126,
            "count" : 25,
            "type" : "VEC3"
        }
    ],
    "bufferViews" : [
        {
            "buffer" : 0,
            "byteLength" : 41868,
            "byteOffset" : 0
        },
        {
            "buffer" : 0,
            "byteLength" : 41868,
            "byteOffset" : 41868
        },
        {
            "buffer" : 0,
            "byteLength" : 27912,
            "byteOffset" : 83736
        },
        {
            "buffer" : 0,
            "byteLength" : 55824,
            "byteOffset" : 111648
        },
        {
            "buffer" : 0,
            "byteLength" : 27912,
            "byteOffset" : 167472
        },
        {
            "buffer" : 0,
            "byteLength" : 55824,
            "byteOffset" : 195384
        },
        {
            "buffer" : 0,
            "byteLength" : 12858,
            "byteOffset" : 251208
        },
        {
            "buffer" : 0,
            "byteLength" : 424031,
            "byteOffset" : 264068
        },
        {
            "buffer" : 0,
            "byteLength" : 128,
            "byteOffset" : 688100
        },
        {
            "buffer" : 0,
            "byteLength" : 100,
            "byteOffset" : 688228
        },
        {
            "buffer" : 0,
            "byteLength" : 300,
            "byteOffset" : 688328
        },
        {
            "buffer" : 0,
            "byteLength" : 400,
            "byteOffset" : 688628
        },
        {
            "buffer" : 0,
            "byteLength" : 300,
            "byteOffset" : 689028
        },
        {
            "buffer" : 0,
            "byteLength" : 300,
            "byteOffset" : 689328
        },
        {
            "buffer" : 0,
            "byteLength" : 400,
            "byteOffset" : 689628
        },
        {
            "buffer" : 0,
            "byteLength" : 300,
            "byteOffset" : 690028
        }
    ],
    "buffers" : [
        {
            "byteLength" : 690328,
            "uri" : "data:application/octet-stream;base64,"
        }
    ]
}
